HIERARCHY
ROOT Reference
{
  OFFSET 0 0 0
  CHANNELS 6 Xposition Yposition Zposition Zrotation Xrotation Yrotation
  JOINT Hips
  {
    OFFSET 251.394 724.17 483.536
    CHANNELS 3 Zrotation Xrotation Yrotation
    JOINT RightUpLeg
    {
      OFFSET -0.450515 -23.4426 -1.37224
      CHANNELS 3 Zrotation Xrotation Yrotation
      JOINT RightLeg
      {
        OFFSET 112.821 0.0872427 -0.321027
        CHANNELS 3 Zrotation Xrotation Yrotation
        JOINT RightFoot
        {
          OFFSET 105.718 0.000193788 0.0213165
          CHANNELS 3 Zrotation Xrotation Yrotation
          JOINT RightToeBase
          {
            OFFSET 37.638 -0.000116272 0.00224792
            CHANNELS 3 Zrotation Xrotation Yrotation
            JOINT RightToeEnd
            {
              OFFSET 21.2112 0.114605 -0.000138184
              CHANNELS 3 Zrotation Xrotation Yrotation
              End Site
              {
                OFFSET 0 0 0
              }
            }
          }
        }
      }
    }
    JOINT LeftUpLeg
    {
      OFFSET -0.449508 23.4315 -1.37054
      CHANNELS 3 Zrotation Xrotation Yrotation
      JOINT LeftLeg
      {
        OFFSET 112.821 -0.0485242 -0.372458
        CHANNELS 3 Zrotation Xrotation Yrotation
        JOINT LeftFoot
        {
          OFFSET 105.716 0.00496094 -0.0229443
          CHANNELS 3 Zrotation Xrotation Yrotation
          JOINT LeftToeBase
          {
            OFFSET 37.639 0 0.00158905
            CHANNELS 3 Zrotation Xrotation Yrotation
            JOINT LeftToeEnd
            {
              OFFSET 21.2113 -0.125031 -0.00017438
              CHANNELS 3 Zrotation Xrotation Yrotation
              End Site
              {
                OFFSET 0 0 0
              }
            }
          }
        }
      }
    }
    JOINT Spine
    {
      OFFSET -5.01225 0.000463591 -9.60395
      CHANNELS 3 Zrotation Xrotation Yrotation
      JOINT Spine1
      {
        OFFSET 26.0222 -0.000271301 -0.000155029
        CHANNELS 3 Zrotation Xrotation Yrotation
        JOINT Spine2
        {
          OFFSET 27.173 -0.000155029 -0.000310058
          CHANNELS 3 Zrotation Xrotation Yrotation
          JOINT Spine3
          {
            OFFSET 36.3953 -0.000232544 7.75146e-005
            CHANNELS 3 Zrotation Xrotation Yrotation
            JOINT Neck
            {
              OFFSET 36.4331 0 -3.00261
              CHANNELS 3 Zrotation Xrotation Yrotation
              JOINT Head
              {
                OFFSET 23.0407 -0.000232544 -0.000310058
                CHANNELS 3 Zrotation Xrotation Yrotation
                End Site
                {
                  OFFSET 0 0 0
                }
              }
            }
            JOINT LeftShoulder
            {
              OFFSET 20.1317 6.74168 -12.6061
              CHANNELS 3 Zrotation Xrotation Yrotation
              JOINT LeftArm
              {
                OFFSET 34.2172 -5.81359e-005 7.75146e-005
                CHANNELS 3 Zrotation Xrotation Yrotation
                JOINT LeftForeArm
                {
                  OFFSET 65.4129 -0.0821605 0.0585235
                  CHANNELS 3 Zrotation Xrotation Yrotation
                  JOINT LeftHand
                  {
                    OFFSET 67.3883 0.0359667 0.0112396
                    CHANNELS 3 Zrotation Xrotation Yrotation
                    JOINT LeftHandThumb1
                    {
                      OFFSET 8.78386 2.85353 -6.05362
                      CHANNELS 3 Zrotation Xrotation Yrotation
                      JOINT LeftHandThumb2
                      {
                        OFFSET 8.25498 -0.000116272 -0.000174407
                        CHANNELS 3 Zrotation Xrotation Yrotation
                        JOINT LeftHandThumb3
                        {
                          OFFSET 7.24822 0.000310058 5.81358e-005
                          CHANNELS 3 Zrotation Xrotation Yrotation
                          JOINT LeftHandThumb4
                          {
                            OFFSET 7.0004 -3.87568e-005 -0.000310057
                            CHANNELS 3 Zrotation Xrotation Yrotation
                            End Site
                            {
                              OFFSET 0 0 0
                            }
                          }
                        }
                      }
                    }
                    JOINT LeftHandIndex1
                    {
                      OFFSET 24.0991 -1.01537 -5.40558
                      CHANNELS 3 Zrotation Xrotation Yrotation
                      JOINT LeftHandIndex2
                      {
                        OFFSET 7.26759 -0.000290679 -0.000465086
                        CHANNELS 3 Zrotation Xrotation Yrotation
                        JOINT LeftHandIndex3
                        {
                          OFFSET 7.13628 -1.93787e-005 0.000232543
                          CHANNELS 3 Zrotation Xrotation Yrotation
                          JOINT LeftHandIndex4
                          {
                            OFFSET 5.46699 9.68932e-005 -0.000387571
                            CHANNELS 3 Zrotation Xrotation Yrotation
                            End Site
                            {
                              OFFSET 0 0 0
                            }
                          }
                        }
                      }
                    }
                    JOINT LeftHandMiddle1
                    {
                      OFFSET 24.4604 -2.52837 0.918567
                      CHANNELS 3 Zrotation Xrotation Yrotation
                      JOINT LeftHandMiddle2
                      {
                        OFFSET 7.41627 -5.81359e-005 0.000116271
                        CHANNELS 3 Zrotation Xrotation Yrotation
                        JOINT LeftHandMiddle3
                        {
                          OFFSET 8.76829 3.87573e-005 -7.75142e-005
                          CHANNELS 3 Zrotation Xrotation Yrotation
                          JOINT LeftHandMiddle4
                          {
                            OFFSET 6.07588 -0.00013565 -5.81356e-005
                            CHANNELS 3 Zrotation Xrotation Yrotation
                            End Site
                            {
                              OFFSET 0 0 0
                            }
                          }
                        }
                      }
                    }
                    JOINT LeftHandRing1
                    {
                      OFFSET 22.465 -1.97467 6.3466
                      CHANNELS 3 Zrotation Xrotation Yrotation
                      JOINT LeftHandRing2
                      {
                        OFFSET 7.36666 -0.000232544 0.000387571
                        CHANNELS 3 Zrotation Xrotation Yrotation
                        JOINT LeftHandRing3
                        {
                          OFFSET 8.07624 -0.000465087 -0.000203475
                          CHANNELS 3 Zrotation Xrotation Yrotation
                          JOINT LeftHandRing4
                          {
                            OFFSET 6.04433 0.00013565 3.87571e-005
                            CHANNELS 3 Zrotation Xrotation Yrotation
                            End Site
                            {
                              OFFSET 0 0 0
                            }
                          }
                        }
                      }
                    }
                    JOINT LeftHandPinky1
                    {
                      OFFSET 19.5278 0.352933 10.4295
                      CHANNELS 3 Zrotation Xrotation Yrotation
                      JOINT LeftHandPinky2
                      {
                        OFFSET 6.16525 5.8136e-005 -0.000251921
                        CHANNELS 3 Zrotation Xrotation Yrotation
                        JOINT LeftHandPinky3
                        {
                          OFFSET 6.14448 -0.000329434 -0.00510625
                          CHANNELS 3 Zrotation Xrotation Yrotation
                          JOINT LeftHandPinky4
                          {
                            OFFSET 4.98555 0.000116272 0.000116271
                            CHANNELS 3 Zrotation Xrotation Yrotation
                            End Site
                            {
                              OFFSET 0 0 0
                            }
                          }
                        }
                      }
                    }
                  }
                }
              }
            }
            JOINT RightShoulder
            {
              OFFSET 20.1309 -6.74152 -12.6063
              CHANNELS 3 Zrotation Xrotation Yrotation
              JOINT RightArm
              {
                OFFSET 34.2171 7.75146e-005 7.75146e-005
                CHANNELS 3 Zrotation Xrotation Yrotation
                JOINT RightForeArm
                {
                  OFFSET 65.4492 0.242543 -0.176501
                  CHANNELS 3 Zrotation Xrotation Yrotation
                  JOINT RightHand
                  {
                    OFFSET 67.3888 -0.0867388 0.0597442
                    CHANNELS 3 Zrotation Xrotation Yrotation
                    JOINT RightHandThumb1
                    {
                      OFFSET 8.78307 -2.85357 -6.05302
                      CHANNELS 3 Zrotation Xrotation Yrotation
                      JOINT RightHandThumb2
                      {
                        OFFSET 8.25493 -7.75145e-005 0
                        CHANNELS 3 Zrotation Xrotation Yrotation
                        JOINT RightHandThumb3
                        {
                          OFFSET 7.24797 -0.000174408 0.000155029
                          CHANNELS 3 Zrotation Xrotation Yrotation
                          JOINT RightHandThumb4
                          {
                            OFFSET 7.00062 0 0
                            CHANNELS 3 Zrotation Xrotation Yrotation
                            End Site
                            {
                              OFFSET 0 0 0
                            }
                          }
                        }
                      }
                    }
                    JOINT RightHandIndex1
                    {
                      OFFSET 24.0991 1.01525 -5.40578
                      CHANNELS 3 Zrotation Xrotation Yrotation
                      JOINT RightHandIndex2
                      {
                        OFFSET 7.26773 7.75144e-005 0.000232543
                        CHANNELS 3 Zrotation Xrotation Yrotation
                        JOINT RightHandIndex3
                        {
                          OFFSET 7.13572 -0.000310058 3.87571e-005
                          CHANNELS 3 Zrotation Xrotation Yrotation
                          JOINT RightHandIndex4
                          {
                            OFFSET 5.46717 0 3.87572e-005
                            CHANNELS 3 Zrotation Xrotation Yrotation
                            End Site
                            {
                              OFFSET 0 0 0
                            }
                          }
                        }
                      }
                    }
                    JOINT RightHandMiddle1
                    {
                      OFFSET 24.4603 2.52899 0.918547
                      CHANNELS 3 Zrotation Xrotation Yrotation
                      JOINT RightHandMiddle2
                      {
                        OFFSET 7.41641 -0.000116272 -0.000116272
                        CHANNELS 3 Zrotation Xrotation Yrotation
                        JOINT RightHandMiddle3
                        {
                          OFFSET 8.76765 -3.87577e-005 0.000232543
                          CHANNELS 3 Zrotation Xrotation Yrotation
                          JOINT RightHandMiddle4
                          {
                            OFFSET 6.07609 -0.000193787 -0.000116271
                            CHANNELS 3 Zrotation Xrotation Yrotation
                            End Site
                            {
                              OFFSET 0 0 0
                            }
                          }
                        }
                      }
                    }
                    JOINT RightHandRing1
                    {
                      OFFSET 22.465 1.97571 6.34696
                      CHANNELS 3 Zrotation Xrotation Yrotation
                      JOINT RightHandRing2
                      {
                        OFFSET 7.36684 0.000193786 0.000155029
                        CHANNELS 3 Zrotation Xrotation Yrotation
                        JOINT RightHandRing3
                        {
                          OFFSET 8.07614 -0.000271301 0
                          CHANNELS 3 Zrotation Xrotation Yrotation
                          JOINT RightHandRing4
                          {
                            OFFSET 6.04468 0.000232543 0
                            CHANNELS 3 Zrotation Xrotation Yrotation
                            End Site
                            {
                              OFFSET 0 0 0
                            }
                          }
                        }
                      }
                    }
                    JOINT RightHandPinky1
                    {
                      OFFSET 19.5277 -0.352346 10.4296
                      CHANNELS 3 Zrotation Xrotation Yrotation
                      JOINT RightHandPinky2
                      {
                        OFFSET 6.16508 0 0.000232543
                        CHANNELS 3 Zrotation Xrotation Yrotation
                        JOINT RightHandPinky3
                        {
                          OFFSET 6.14396 -0.000155048 -0.0048834
                          CHANNELS 3 Zrotation Xrotation Yrotation
                          JOINT RightHandPinky4
                          {
                            OFFSET 4.98577 -7.75146e-005 -7.75143e-005
                            CHANNELS 3 Zrotation Xrotation Yrotation
                            End Site
                            {
                              OFFSET 0 0 0
                            }
                          }
                        }
                      }
                    }
                  }
                }
              }
            }
          }
        }
      }
    }
  }
}
MOTION
Frames:	4
Frame Time:	0.0333333
0 0 0 -90 -7.01671e-015 -180 -135.219 77.2409 23.2773 142.47 -0.224519 -95.1652 -2.61967 -2.37761 -49.1039 16.5236 23.1552 35.6561 -17.1475 21.5043 58.3663 -2.16971e-005 1.11768e-005 -86.4974 168.481 -22.9941 -115.382 -0.254067 -0.088813 -5.02797 -8.80032 -2.45835 39.8259 -4.22204 4.03928 52.6675 0.00012016 -6.68449e-005 -86.4974 0.000488148 0.000101416 123.633 -8.3686 7.689 -12.0467 14.2144 5.16269 -13.7921 0.339927 -2.94197 -8.66912 3.7319 -6.09696 38.6756 7.98725 -11.9977 46.067 105.841 21.8189 -31.0699 63.3992 15.2249 -8.3898 -11.0978 30.1247 28.0484 -1.02346 -46.9316 -3.57641 -158.645 -1.2508 154.969 0.000460047 -0.000146847 18.1945 0.000148687 -5.24046e-005 11.9589 0.00018868 -0.00133376 -0.000150475 36.0655 86.5083 -17.7569 -0.000305831 -0.000218508 14.4451 0.00112408 -0.000803078 10.5803 -0.000572329 -0.000450088 -2.32885 -1.69189 86.8813 32.8036 0.000115906 -0.000168035 15.1989 0.000927262 -0.00071133 16.0249 -0.000500204 -0.00037262 -2.3282 -58.2562 83.2336 92.5777 0.000124414 -0.000860912 16.2201 0.00154938 -0.000421756 17.0667 -0.000617391 -0.000642246 -2.32754 -63.1891 86.0926 89.0508 0.00113777 -0.00114035 19.2789 0.00015145 -0.000159646 18.9148 -1.58284e-005 -1.6294e-005 -2.32874 -54.8344 -20.6853 -8.73295 -3.26332 45.0401 26.9667 7.08325 20.3351 24.6606 0.227406 35.6614 -10.3918 142.213 51.8016 169.894 -0.000180407 9.75367e-005 16.9256 9.59527e-005 8.18077e-005 18.8543 -0.00024414 -3.05175e-005 180 -95.0295 -68.1709 -102.33 -0.000183048 -0.000214095 49.758 2.70922e-005 -6.26485e-005 45.1943 -3.05175e-005 -0.000152588 -180 -105.983 -79.9218 -76.0642 -0.000197874 3.05993e-005 65.9844 -0.000319088 0.000371013 58.5702 3.05175e-005 -4.57763e-005 -180 -16.1797 -83.9647 34.4437 -8.48713e-005 0.000264958 55.5555 -0.000219274 -4.79694e-005 57.7157 -6.1035e-005 -0.000198364 -180 13.4556 -78.0188 70.4019 -0.000296316 0.000531786 51.2477 -6.32678e-005 0.000162444 49.3611 -6.1035e-005 -0.000137329 -180 
0 0 0 -90 -7.01671e-015 -180 -133.04 77.4172 20.8395 142.693 -0.487117 -95.7281 -2.30413 -2.16568 -48.2432 15.7435 24.0316 36.9391 -17.5172 21.7432 58.4376 -2.13244e-005 1.09693e-005 -86.4974 168.388 -23.2901 -115.908 -0.261357 -0.243959 -3.66174 -9.10886 -2.63096 38.8649 -4.37944 4.28237 52.4858 0.000120273 -6.684e-005 -86.4974 0.000480246 0.000127128 123.741 -8.11752 7.96587 -12.0421 14.2116 5.2701 -13.8615 0.407661 -2.78932 -8.80338 3.72712 -5.84738 38.9679 8.03269 -11.8482 46.3409 105.835 21.7701 -31.1882 62.7091 15.1165 -8.02604 -11.1499 30.2088 27.4849 -0.754026 -46.2526 -3.49668 -158.63 -1.25395 155.044 0.000421538 -0.000154392 18.1398 -0.000996162 -0.000296036 11.9865 0.000188682 -0.00133375 -0.000150475 36.9716 86.5088 -18.5739 -0.000289213 -0.000215454 14.4727 0.00112917 -0.000797627 10.6256 -0.000572287 -0.000451762 -2.2125 -1.63797 86.9032 32.8036 0.000118336 -0.000170674 15.2755 0.000909882 -0.00071692 16.0691 -0.000499682 -0.000365974 -2.21186 -58.2096 83.2547 92.5894 0.000116575 -0.00085873 16.3163 0.00154222 -0.000421008 17.1302 -0.000619655 -0.000640628 -2.21121 -63.1598 86.0798 89.1394 0.00113368 -0.00114268 19.3535 0.000149758 -0.000159655 18.9653 0.000539785 -2.95796e-005 -2.21239 -54.8268 -20.6771 -8.74673 -4.42511 44.9813 28.9821 6.87745 19.7243 23.6181 0.798034 35.0119 -9.95364 142.213 51.8015 169.894 -0.000179643 9.77345e-005 16.9256 9.40988e-005 7.88236e-005 18.8543 -0.00024414 -3.05175e-005 180 -95.0295 -68.1709 -102.33 -0.000182266 -0.000221719 49.758 4.07905e-005 -4.86216e-005 45.1943 -3.05175e-005 -0.000152588 -180 -105.983 -79.9218 -76.0643 -0.000197251 2.93361e-005 65.9844 -0.000319518 0.000364176 58.5702 3.05175e-005 -6.10351e-005 -180 -16.1797 -83.9647 34.4437 -8.61164e-005 0.000260425 55.5555 -0.000218078 -5.06466e-005 57.7157 -6.1035e-005 -0.000213623 -180 13.4556 -78.0188 70.4019 -0.000297948 0.000530272 51.2476 -6.9703e-005 0.000150744 49.3611 -6.1035e-005 -0.000152588 -180 
0 0 0 -90 -7.01671e-015 -180 -131.373 77.4354 18.9729 143.26 -0.911021 -96.2724 -2.13876 -2.0491 -47.8005 14.5888 24.8077 39.5386 -17.7598 21.5988 58.74 -2.07968e-005 7.23009e-006 -86.4974 168.55 -23.7772 -116.065 -0.264985 -0.352657 -3.29639 -9.69521 -3.10598 38.7505 -4.42881 4.40391 52.1919 0.000120416 -7.02507e-005 -86.4974 0.000500574 0.000110286 123.778 -7.88176 8.23713 -12.0711 14.2111 5.32141 -13.9303 0.45327 -2.63419 -8.88767 3.68617 -5.60434 39.3922 8.22024 -11.6615 46.4625 105.851 21.737 -31.2534 61.8587 15.0472 -7.58043 -10.9557 30.5447 27.4619 -0.228864 -45.1661 -3.02884 -158.587 -1.26307 155.258 0.000450406 -0.000148914 17.9836 0.00016369 -5.21239e-005 12.0981 0.000188682 -0.00133376 -0.000150475 39.5697 86.5066 -20.9167 -0.000299376 -0.000225188 14.552 0.00114986 -0.000807663 10.7555 -0.000574045 -0.000458024 -2.09616 -1.48237 86.9661 32.8026 0.000102725 -0.000191695 15.4952 0.000923856 -0.000703339 16.1959 -0.000503594 -0.000362911 -2.09552 -58.0771 83.3158 92.6238 0.000125811 -0.00085893 16.5918 0.00153449 -0.000435958 17.3124 -0.000622086 -0.000644092 -2.09488 -63.0727 86.0431 89.3902 0.00112042 -0.00115253 19.5674 0.0196216 0.00658366 19.1244 0.00109639 -4.09007e-005 -2.09606 -54.8054 -20.6532 -8.79019 -5.3531 45.1966 30.8748 6.65785 19.4687 22.3632 0.941166 33.7366 -9.42571 142.213 51.8016 169.894 -0.000178673 9.55465e-005 16.9256 9.32119e-005 7.44046e-005 18.8543 -0.00024414 -4.57763e-005 180 -95.0295 -68.1709 -102.33 -0.000182079 -0.000229799 49.758 4.26142e-005 -5.07295e-005 45.1943 -3.05175e-005 -0.000152588 -180 -105.983 -79.9218 -76.0643 -0.000197205 2.32258e-005 65.9844 -0.000319508 0.000357992 58.5702 3.05175e-005 -6.10351e-005 -180 -16.1797 -83.9647 34.4437 -8.62426e-005 0.000253165 55.5555 -0.000217732 -5.67445e-005 57.7157 -6.1035e-005 -0.000213623 -180 13.4556 -78.0188 70.4019 -0.000298014 0.00052667 51.2476 -7.10277e-005 0.000142985 49.3611 -6.1035e-005 -0.000152588 -180 
0 0 0 -90 -7.01671e-015 -180 -130.144 77.2232 17.5706 144.315 -1.6936 -97.206 -2.01592 -1.96395 -47.3859 12.7193 25.55 43.3139 -17.6001 21.1842 59.0616 -2.04427e-005 3.52469e-006 -86.4974 169.054 -24.5643 -116.102 -0.266704 -0.398515 -3.29671 -10.3782 -4.01104 39.0664 -4.37916 4.40062 51.8444 0.000120553 -7.36868e-005 -86.4974 0.000480497 7.61446e-005 123.674 -7.68332 8.40315 -12.0708 14.3235 5.36639 -13.9051 0.473982 -2.49871 -8.90766 3.67238 -5.48775 39.8262 8.36999 -11.6213 46.5256 105.76 21.7717 -31.1177 61.1319 15.0607 -7.38219 -11.1239 30.9348 28.2374 0.618633 -45.1324 -2.22229 -158.519 -1.27639 155.597 0.000460593 -0.000159611 17.7368 0.000161765 -5.34202e-005 12.2875 0.000188682 -0.00133375 -0.000150475 43.657 86.4912 -24.6005 -0.000319143 -0.000218147 14.6772 0.00113264 -0.000802872 10.9606 -0.000571642 -0.00045702 -1.97983 -1.2369 87.0654 32.8014 0.000104979 -0.000194697 15.8422 0.000937235 -0.000711161 16.3962 -0.000505348 -0.000359872 -1.97919 -57.8692 83.4133 92.6797 0.000143684 -0.000856551 17.027 0.00154928 -0.000414666 17.6003 -0.000622348 -0.000644166 -1.97854 -62.9263 85.9849 89.7775 0.00113723 -0.00114993 19.9052 0.000171401 -0.000168159 19.3393 0.00165126 -4.74217e-005 -1.97972 -54.7721 -20.6147 -8.86663 -6.07244 45.6268 32.5625 6.4396 19.551 21.041 0.829512 31.9619 -8.92553 142.213 51.8016 169.894 -0.000179025 9.19208e-005 16.9256 9.50271e-005 6.97129e-005 18.8543 -0.00024414 -7.62939e-005 180 -95.0296 -68.1709 -102.33 -0.000181797 -0.000246409 49.758 3.70811e-005 -6.08709e-005 45.1943 -3.05175e-005 -0.000167847 -180 -105.983 -79.9218 -76.0644 -0.000197484 8.8171e-006 65.9844 -0.000318749 0.000345344 58.5701 3.05175e-005 -7.62938e-005 -180 -16.1797 -83.9647 34.4437 -8.62213e-005 0.000238105 55.5555 -0.000217502 -6.74409e-005 57.7157 -6.1035e-005 -0.000228882 -180 13.4556 -78.0188 70.4019 -0.000298354 0.000524549 51.2476 -6.95483e-005 0.000133256 49.3611 -6.1035e-005 -0.000167846 -180 
